<svg xmlns="http://www.w3.org/2000/svg" width="39" height="12" fill="none"><path fill="#fff" d="M3.808.522H.681s.353.518.353 1.503v8.154c0 .986-.353 1.503-.353 1.503h2.338s-.353-.518-.353-1.503V7.856h1.142c.57 0 1.117-.23 1.52-.642.403-.41.63-.967.63-1.549V2.713c0-.581-.227-1.138-.63-1.55a2.13 2.13 0 0 0-1.52-.64Zm.516 5.174c0 .21-.082.412-.228.56a.772.772 0 0 1-.55.233h-.88v-4.6h.883a.77.77 0 0 1 .55.233c.145.149.227.35.228.56l-.003 3.014Zm8.085-2.573c0-.58-.227-1.137-.63-1.548a2.13 2.13 0 0 0-1.518-.643h-.803a2.13 2.13 0 0 0-1.518.643 2.21 2.21 0 0 0-.63 1.548v7.056c0 .986-.354 1.503-.354 1.503h2.339s-.354-.518-.354-1.503V8.26h1.837v1.92c0 .985-.354 1.502-.354 1.502h2.339s-.354-.518-.354-1.503V3.123ZM8.942 6.901V3.089a.808.808 0 0 1 .23-.562.778.778 0 0 1 .55-.232h.281a.77.77 0 0 1 .55.233.8.8 0 0 1 .228.56V6.9l-1.84.001Zm16.95 1.777a2.2 2.2 0 0 0-.539-1.445 2.201 2.201 0 0 0 .653-1.569v-2.54a2.222 2.222 0 0 0-.63-1.549 2.13 2.13 0 0 0-1.519-.643H20.73s.351.518.351 1.504v7.743c0 .986-.353 1.503-.353 1.503h2.338s-.353-.518-.353-1.503V7.855h.774a.77.77 0 0 1 .547.233c.145.149.226.35.226.56v2.21c.04.56.3.824.3.824h1.686s-.354-.518-.354-1.503v-1.5ZM23.595 2.3a.77.77 0 0 1 .55.233c.145.148.227.35.228.56v2.602c0 .21-.082.41-.227.56a.772.772 0 0 1-.547.234h-.887v-4.19h.883ZM17.18.932h-3.127s.351.518.351 1.504v7.743c0 .986-.354 1.503-.354 1.503h3.128a2.116 2.116 0 0 0 1.522-.64 2.23 2.23 0 0 0 .632-1.55v-6.37a2.223 2.223 0 0 0-.631-1.55 2.13 2.13 0 0 0-1.52-.64Zm.517 8.59c0 .21-.083.412-.229.56a.771.771 0 0 1-.55.233h-.885V2.3h.883a.77.77 0 0 1 .55.233.8.8 0 0 1 .228.56l.003 6.43Zm20.648-2.698v3.189c0 .448-.175.878-.486 1.195-.31.317-.732.495-1.172.496h-1.496c-.44 0-.86-.18-1.171-.496a1.71 1.71 0 0 1-.486-1.195V8.577h1.709s-.26.228-.26 1.212v.051c0 .133.053.26.145.355a.488.488 0 0 0 .347.147h.744c.13 0 .256-.053.348-.147a.508.508 0 0 0 .145-.355v-2.8a.239.239 0 0 0-.068-.167.23.23 0 0 0-.164-.068h-1.688c-.36 0-.703-.146-.957-.405a1.395 1.395 0 0 1-.397-.975v-3.19c0-.448.175-.878.486-1.196.31-.317.732-.495 1.172-.496h1.496c.44 0 .86.179 1.172.496.31.317.485.746.486 1.195v1.404h-1.71s.26-.227.26-1.212v-.05a.507.507 0 0 0-.144-.356.488.488 0 0 0-.349-.147h-.745a.488.488 0 0 0-.348.147.508.508 0 0 0-.145.355v2.834c0 .063.025.123.069.167a.23.23 0 0 0 .163.069h1.69c.36 0 .703.146.957.404.254.26.396.61.397.976ZM29.49 2.295v3.336h.608c.966 0 1.472-.36 1.472-.36v2.078s-.508-.36-1.473-.36h-.607v3.332h1.28c.778 0 1.235-.347 1.235-.347l-.273 1.705h-4.225s.353-.517.353-1.5V2.435c0-.986-.353-1.5-.353-1.5h4.225l.273 1.704s-.455-.348-1.235-.348l-1.28.003Z"/></svg>